<svg xmlns="http://www.w3.org/2000/svg" width="1028.292" height="529.979" version="1.1" viewBox="-22.672 -10.59 45.345 23.371"><g stroke-linecap="round" transform="scale(1,-1)"><g id="Visible" fill="none" stroke="#000" stroke-width=".09"><line x1="-22.627" x2="-22.627" y1="-.226" y2="-9.399"/><line x1="-11.314" x2="-22.627" y1="-3.563" y2="-.226"/><line x1="-11.314" x2="-11.314" y1="-12.736" y2="-3.563"/><line x1="-22.627" x2="-11.314" y1="-9.399" y2="-12.736"/><line x1="-22.627" x2="-19.371" y1="-.226" y2=".735"/><line x1="-15.189" x2="-13.714" y1="1.968" y2="2.403"/><line x1="-9.532" x2="-8.057" y1="3.637" y2="4.072"/><line x1="-3.875" x2="-2.4" y1="5.306" y2="5.741"/><line x1="1.782" x2="3.257" y1="6.974" y2="7.409"/><line x1="7.439" x2="8.914" y1="8.643" y2="9.078"/><line x1="-11.314" x2="22.627" y1="-3.563" y2="6.448"/><line x1="22.627" x2="19.371" y1="6.448" y2="7.409"/><line x1="15.189" x2="13.714" y1="8.643" y2="9.078"/><path d="M -13.713708,-1.894296 A 2.4,0.7079090058323324 0.0 0,1 -8.913708,-1.894296"/><path d="M -8.056854,-0.225739 A 2.4,0.7079090058323324 0.0 0,1 -3.256854,-0.225739"/><path d="M -2.4,1.442819 A 2.4,0.7079090058323324 0.0 0,1 2.4,1.442819"/><path d="M 3.256854,3.111376 A 2.4,0.7079090058323324 0.0 0,1 8.056854,3.111376"/><path d="M 8.913708,4.779934 A 2.4,0.7079090058323324 0.0 0,1 13.713708,4.779934"/><path d="M 14.570563,6.448491 A 2.4,0.7079090058323324 0.0 0,1 19.370563,6.448491"/><path d="M -19.370563,-0.225739 A 2.4,0.7079090058323324 0.0 0,1 -14.570563,-0.225739"/><path d="M -13.713708,1.442819 A 2.4,0.7079090058323324 0.0 0,1 -8.913708,1.442819"/><path d="M -8.056854,3.111376 A 2.4,0.7079090058323324 0.0 0,1 -3.256854,3.111376"/><path d="M -2.4,4.779934 A 2.4,0.7079090058323324 0.0 0,1 2.4,4.779934"/><path d="M 3.256854,6.448491 A 2.4,0.7079090058323324 0.0 0,1 8.056854,6.448491"/><path d="M 8.913708,8.117049 A 2.4,0.7079090058323324 0.0 0,1 13.713708,8.117049"/><line x1="22.627" x2="22.627" y1="-2.724" y2="6.448"/><line x1="-11.314" x2="22.627" y1="-12.736" y2="-2.724"/><path d="M -9.616652,0.326187 A 2.4,0.7079090058323324 0.0 0,1 -13.713708,-0.17438"/><path d="M -13.713708,-0.17438 A 2.4,0.7079090058323324 0.0 0,1 -8.913708,-0.17438"/><path d="M -8.913708,-0.17438 A 2.4,0.7079090058323324 0.0 0,1 -9.616652,0.326187"/><path d="M -3.959798,1.994745 A 2.4,0.7079090058323324 0.0 0,1 -8.056854,1.494177"/><path d="M -8.056854,1.494177 A 2.4,0.7079090058323324 0.0 0,1 -3.256854,1.494177"/><path d="M -3.256854,1.494177 A 2.4,0.7079090058323324 0.0 0,1 -3.959798,1.994745"/><path d="M 1.697056,3.663302 A 2.4,0.7079090058323324 0.0 0,1 -2.4,3.162735"/><path d="M -2.4,3.162735 A 2.4,0.7079090058323324 0.0 0,1 2.4,3.162735"/><path d="M 2.4,3.162735 A 2.4,0.7079090058323324 0.0 0,1 1.697056,3.663302"/><path d="M 7.353911,5.33186 A 2.4,0.7079090058323324 0.0 0,1 3.256854,4.831292"/><path d="M 3.256854,4.831292 A 2.4,0.7079090058323324 0.0 0,1 8.056854,4.831292"/><path d="M 8.056854,4.831292 A 2.4,0.7079090058323324 0.0 0,1 7.353911,5.33186"/><path d="M 13.010765,7.000417 A 2.4,0.7079090058323324 0.0 0,1 8.913708,6.49985"/><path d="M 8.913708,6.49985 A 2.4,0.7079090058323324 0.0 0,1 13.713708,6.49985"/><path d="M 13.713708,6.49985 A 2.4,0.7079090058323324 0.0 0,1 13.010765,7.000417"/><path d="M 18.667619,8.668975 A 2.4,0.7079090058323324 0.0 0,1 14.570563,8.168408"/><path d="M 14.570563,8.168408 A 2.4,0.7079090058323324 0.0 0,1 19.370563,8.168408"/><path d="M 19.370563,8.168408 A 2.4,0.7079090058323324 0.0 0,1 18.667619,8.668975"/><path d="M -15.273506,1.994745 A 2.4,0.7079090058323324 0.0 0,1 -19.370563,1.494177"/><path d="M -19.370563,1.494177 A 2.4,0.7079090058323324 0.0 0,1 -14.570563,1.494177"/><path d="M -14.570563,1.494177 A 2.4,0.7079090058323324 0.0 0,1 -15.273506,1.994745"/><path d="M -9.616652,3.663302 A 2.4,0.7079090058323324 0.0 0,1 -13.713708,3.162735"/><path d="M -13.713708,3.162735 A 2.4,0.7079090058323324 0.0 0,1 -8.913708,3.162735"/><path d="M -8.913708,3.162735 A 2.4,0.7079090058323324 0.0 0,1 -9.616652,3.663302"/><path d="M -3.959798,5.33186 A 2.4,0.7079090058323324 0.0 0,1 -8.056854,4.831292"/><path d="M -8.056854,4.831292 A 2.4,0.7079090058323324 0.0 0,1 -3.256854,4.831292"/><path d="M -3.256854,4.831292 A 2.4,0.7079090058323324 0.0 0,1 -3.959798,5.33186"/><path d="M 1.697056,7.000417 A 2.4,0.7079090058323324 0.0 0,1 -2.4,6.49985"/><path d="M -2.4,6.49985 A 2.4,0.7079090058323324 0.0 0,1 2.4,6.49985"/><path d="M 2.4,6.49985 A 2.4,0.7079090058323324 0.0 0,1 1.697056,7.000417"/><path d="M 7.353911,8.668975 A 2.4,0.7079090058323324 0.0 0,1 3.256854,8.168408"/><path d="M 3.256854,8.168408 A 2.4,0.7079090058323324 0.0 0,1 8.056854,8.168408"/><path d="M 8.056854,8.168408 A 2.4,0.7079090058323324 0.0 0,1 7.353911,8.668975"/><path d="M 13.010765,10.337532 A 2.4,0.7079090058323324 0.0 0,1 8.913708,9.836965"/><path d="M 8.913708,9.836965 A 2.4,0.7079090058323324 0.0 0,1 13.713708,9.836965"/><path d="M 13.713708,9.836965 A 2.4,0.7079090058323324 0.0 0,1 13.010765,10.337532"/><line x1="-8.914" x2="-8.914" y1="-1.894" y2="-.174"/><line x1="-13.714" x2="-13.714" y1="-1.894" y2="-.174"/><line x1="-3.257" x2="-3.257" y1="-.226" y2="1.494"/><line x1="-8.057" x2="-8.057" y1="-.226" y2="1.494"/><line x1="2.4" x2="2.4" y1="1.443" y2="3.163"/><line x1="-2.4" x2="-2.4" y1="1.443" y2="3.163"/><line x1="8.057" x2="8.057" y1="3.111" y2="4.831"/><line x1="3.257" x2="3.257" y1="3.111" y2="4.831"/><line x1="13.714" x2="13.714" y1="4.78" y2="6.5"/><line x1="8.914" x2="8.914" y1="4.78" y2="6.5"/><line x1="19.371" x2="19.371" y1="6.448" y2="8.168"/><line x1="14.571" x2="14.571" y1="6.448" y2="8.168"/><line x1="-14.571" x2="-14.571" y1="-.226" y2="1.494"/><line x1="-19.371" x2="-19.371" y1="-.226" y2="1.494"/><line x1="-8.914" x2="-8.914" y1="1.443" y2="3.163"/><line x1="-13.714" x2="-13.714" y1="1.443" y2="3.163"/><line x1="-3.257" x2="-3.257" y1="3.111" y2="4.831"/><line x1="-8.057" x2="-8.057" y1="3.111" y2="4.831"/><line x1="2.4" x2="2.4" y1="4.78" y2="6.5"/><line x1="-2.4" x2="-2.4" y1="4.78" y2="6.5"/><line x1="8.057" x2="8.057" y1="6.448" y2="8.168"/><line x1="3.257" x2="3.257" y1="6.448" y2="8.168"/><line x1="13.714" x2="13.714" y1="8.117" y2="9.837"/><line x1="8.914" x2="8.914" y1="8.117" y2="9.837"/></g><g id="Hidden" fill="none" stroke="#636363" stroke-dasharray="0 .27" stroke-width=".09"><line x1="11.314" x2="11.314" y1="9.786" y2=".613"/><line x1="-19.371" x2="-15.189" y1=".735" y2="1.968"/><line x1="-13.714" x2="-9.532" y1="2.403" y2="3.637"/><line x1="-8.057" x2="-3.875" y1="4.072" y2="5.306"/><line x1="-2.4" x2="1.782" y1="5.741" y2="6.974"/><line x1="3.257" x2="7.439" y1="7.409" y2="8.643"/><line x1="8.914" x2="11.314" y1="9.078" y2="9.786"/><line x1="11.314" x2="-22.627" y1=".613" y2="-9.399"/><line x1="19.371" x2="15.189" y1="7.409" y2="8.643"/><line x1="13.714" x2="11.314" y1="9.078" y2="9.786"/><path d="M -9.616652,-1.393729 A 2.4,0.7079090058323324 0.0 0,1 -13.713708,-1.894296"/><path d="M -8.913708,-1.894296 A 2.4,0.7079090058323324 0.0 0,1 -9.616652,-1.393729"/><path d="M -3.959798,0.274829 A 2.4,0.7079090058323324 0.0 0,1 -8.056854,-0.225739"/><path d="M -3.256854,-0.225739 A 2.4,0.7079090058323324 0.0 0,1 -3.959798,0.274829"/><path d="M 1.697056,1.943386 A 2.4,0.7079090058323324 0.0 0,1 -2.4,1.442819"/><path d="M 2.4,1.442819 A 2.4,0.7079090058323324 0.0 0,1 1.697056,1.943386"/><path d="M 7.353911,3.611944 A 2.4,0.7079090058323324 0.0 0,1 3.256854,3.111376"/><path d="M 8.056854,3.111376 A 2.4,0.7079090058323324 0.0 0,1 7.353911,3.611944"/><path d="M 13.010765,5.280501 A 2.4,0.7079090058323324 0.0 0,1 8.913708,4.779934"/><path d="M 13.713708,4.779934 A 2.4,0.7079090058323324 0.0 0,1 13.010765,5.280501"/><path d="M 18.667619,6.949059 A 2.4,0.7079090058323324 0.0 0,1 14.570563,6.448491"/><path d="M 19.370563,6.448491 A 2.4,0.7079090058323324 0.0 0,1 18.667619,6.949059"/><path d="M -15.273506,0.274829 A 2.4,0.7079090058323324 0.0 0,1 -19.370563,-0.225739"/><path d="M -14.570563,-0.225739 A 2.4,0.7079090058323324 0.0 0,1 -15.273506,0.274829"/><path d="M -9.616652,1.943386 A 2.4,0.7079090058323324 0.0 0,1 -13.713708,1.442819"/><path d="M -8.913708,1.442819 A 2.4,0.7079090058323324 0.0 0,1 -9.616652,1.943386"/><path d="M -3.959798,3.611944 A 2.4,0.7079090058323324 0.0 0,1 -8.056854,3.111376"/><path d="M -3.256854,3.111376 A 2.4,0.7079090058323324 0.0 0,1 -3.959798,3.611944"/><path d="M 1.697056,5.280501 A 2.4,0.7079090058323324 0.0 0,1 -2.4,4.779934"/><path d="M 2.4,4.779934 A 2.4,0.7079090058323324 0.0 0,1 1.697056,5.280501"/><path d="M 7.353911,6.949059 A 2.4,0.7079090058323324 0.0 0,1 3.256854,6.448491"/><path d="M 8.056854,6.448491 A 2.4,0.7079090058323324 0.0 0,1 7.353911,6.949059"/><path d="M 13.010765,8.617616 A 2.4,0.7079090058323324 0.0 0,1 8.913708,8.117049"/><path d="M 13.713708,8.117049 A 2.4,0.7079090058323324 0.0 0,1 13.010765,8.617616"/><line x1="22.627" x2="11.314" y1="-2.724" y2=".613"/><line x1="-19.163" x2="-20.93" y1="-9.92" y2="-9.399"/><line x1="-19.163" x2="-18.95" y1="-9.92" y2="-9.857"/><line x1="-18.526" x2="-18.95" y1="-9.983" y2="-9.857"/><line x1="-18.738" x2="-18.526" y1="-10.045" y2="-9.983"/><line x1="-13.506" x2="-18.738" y1="-11.589" y2="-10.045"/><line x1="-13.506" x2="-13.294" y1="-11.589" y2="-11.526"/><line x1="-12.869" x2="-13.294" y1="-11.651" y2="-11.526"/><line x1="-13.081" x2="-12.869" y1="-11.714" y2="-11.651"/><line x1="-11.314" x2="-13.081" y1="-12.235" y2="-11.714"/><line x1="-11.314" x2="-9.546" y1="-12.235" y2="-11.714"/><line x1="-9.546" x2="-9.758" y1="-11.714" y2="-11.651"/><line x1="-9.758" x2="-9.334" y1="-11.651" y2="-11.526"/><line x1="-9.122" x2="-9.334" y1="-11.589" y2="-11.526"/><line x1="-9.122" x2="-3.889" y1="-11.589" y2="-10.045"/><line x1="-3.889" x2="-4.101" y1="-10.045" y2="-9.983"/><line x1="-4.101" x2="-3.677" y1="-9.983" y2="-9.857"/><line x1="-3.465" x2="-3.677" y1="-9.92" y2="-9.857"/><line x1="-3.465" x2="1.768" y1="-9.92" y2="-8.377"/><line x1="1.768" x2="1.556" y1="-8.377" y2="-8.314"/><line x1="1.556" x2="1.98" y1="-8.314" y2="-8.189"/><line x1="2.192" x2="1.98" y1="-8.251" y2="-8.189"/><line x1="2.192" x2="7.425" y1="-8.251" y2="-6.708"/><line x1="7.425" x2="7.212" y1="-6.708" y2="-6.646"/><line x1="7.212" x2="7.637" y1="-6.646" y2="-6.52"/><line x1="7.849" x2="7.637" y1="-6.583" y2="-6.52"/><line x1="7.849" x2="13.081" y1="-6.583" y2="-5.04"/><line x1="13.081" x2="12.869" y1="-5.04" y2="-4.977"/><line x1="12.869" x2="13.294" y1="-4.977" y2="-4.852"/><line x1="13.506" x2="13.294" y1="-4.914" y2="-4.852"/><line x1="13.506" x2="18.738" y1="-4.914" y2="-3.371"/><line x1="18.738" x2="18.526" y1="-3.371" y2="-3.308"/><line x1="18.526" x2="18.95" y1="-3.308" y2="-3.183"/><line x1="19.163" x2="18.95" y1="-3.246" y2="-3.183"/><line x1="19.163" x2="20.93" y1="-3.246" y2="-2.724"/><line x1="20.93" x2="19.163" y1="-2.724" y2="-2.203"/><line x1="18.95" x2="19.163" y1="-2.266" y2="-2.203"/><line x1="18.95" x2="18.526" y1="-2.266" y2="-2.14"/><line x1="18.526" x2="18.738" y1="-2.14" y2="-2.078"/><line x1="18.738" x2="13.506" y1="-2.078" y2="-.534"/><line x1="13.294" x2="13.506" y1="-.597" y2="-.534"/><line x1="13.294" x2="12.869" y1="-.597" y2="-.472"/><line x1="12.869" x2="13.081" y1="-.472" y2="-.409"/><line x1="13.081" x2="11.314" y1="-.409" y2=".112"/><line x1="9.546" x2="11.314" y1="-.409" y2=".112"/><line x1="9.758" x2="9.546" y1="-.472" y2="-.409"/><line x1="9.334" x2="9.758" y1="-.597" y2="-.472"/><line x1="9.334" x2="9.122" y1="-.597" y2="-.534"/><line x1="3.889" x2="9.122" y1="-2.078" y2="-.534"/><line x1="4.101" x2="3.889" y1="-2.14" y2="-2.078"/><line x1="3.677" x2="4.101" y1="-2.266" y2="-2.14"/><line x1="3.677" x2="3.465" y1="-2.266" y2="-2.203"/><line x1="-1.768" x2="3.465" y1="-3.746" y2="-2.203"/><line x1="-1.556" x2="-1.768" y1="-3.809" y2="-3.746"/><line x1="-1.98" x2="-1.556" y1="-3.934" y2="-3.809"/><line x1="-1.98" x2="-2.192" y1="-3.934" y2="-3.872"/><line x1="-7.425" x2="-2.192" y1="-5.415" y2="-3.872"/><line x1="-7.212" x2="-7.425" y1="-5.478" y2="-5.415"/><line x1="-7.637" x2="-7.212" y1="-5.603" y2="-5.478"/><line x1="-7.637" x2="-7.849" y1="-5.603" y2="-5.54"/><line x1="-13.081" x2="-7.849" y1="-7.084" y2="-5.54"/><line x1="-12.869" x2="-13.081" y1="-7.146" y2="-7.084"/><line x1="-13.294" x2="-12.869" y1="-7.271" y2="-7.146"/><line x1="-13.294" x2="-13.506" y1="-7.271" y2="-7.209"/><line x1="-18.738" x2="-13.506" y1="-8.752" y2="-7.209"/><line x1="-18.526" x2="-18.738" y1="-8.815" y2="-8.752"/><line x1="-18.95" x2="-18.526" y1="-8.94" y2="-8.815"/><line x1="-18.95" x2="-19.163" y1="-8.94" y2="-8.877"/><line x1="-20.93" x2="-19.163" y1="-9.399" y2="-8.877"/><line x1="-19.163" x2="-19.163" y1="-9.92" y2="-1.894"/><line x1="-20.93" x2="-20.93" y1="-9.399" y2="-1.372"/><line x1="-19.163" x2="-20.93" y1="-1.894" y2="-1.372"/><line x1="-18.95" x2="-18.95" y1="-9.857" y2="-1.831"/><line x1="-19.163" x2="-18.95" y1="-1.894" y2="-1.831"/><line x1="-18.526" x2="-18.526" y1="-9.983" y2="-1.956"/><line x1="-18.526" x2="-18.95" y1="-1.956" y2="-1.831"/><line x1="-18.738" x2="-18.738" y1="-10.045" y2="-2.019"/><line x1="-18.738" x2="-18.526" y1="-2.019" y2="-1.956"/><line x1="-13.506" x2="-13.506" y1="-11.589" y2="-3.562"/><line x1="-13.506" x2="-18.738" y1="-3.562" y2="-2.019"/><line x1="-13.294" x2="-13.294" y1="-11.526" y2="-3.5"/><line x1="-13.506" x2="-13.294" y1="-3.562" y2="-3.5"/><line x1="-12.869" x2="-12.869" y1="-11.651" y2="-3.625"/><line x1="-12.869" x2="-13.294" y1="-3.625" y2="-3.5"/><line x1="-13.081" x2="-13.081" y1="-11.714" y2="-3.687"/><line x1="-13.081" x2="-12.869" y1="-3.687" y2="-3.625"/><line x1="-11.314" x2="-11.314" y1="-12.235" y2="-4.209"/><line x1="-11.314" x2="-13.081" y1="-4.209" y2="-3.687"/><line x1="-9.546" x2="-9.546" y1="-11.714" y2="-3.687"/><line x1="-11.314" x2="-9.546" y1="-4.209" y2="-3.687"/><line x1="-9.758" x2="-9.758" y1="-11.651" y2="-3.625"/><line x1="-9.546" x2="-9.758" y1="-3.687" y2="-3.625"/><line x1="-9.334" x2="-9.334" y1="-11.526" y2="-3.5"/><line x1="-9.758" x2="-9.334" y1="-3.625" y2="-3.5"/><line x1="-9.122" x2="-9.122" y1="-11.589" y2="-3.562"/><line x1="-9.122" x2="-9.334" y1="-3.562" y2="-3.5"/><line x1="-3.889" x2="-3.889" y1="-10.045" y2="-2.019"/><line x1="-9.122" x2="-3.889" y1="-3.562" y2="-2.019"/><line x1="-4.101" x2="-4.101" y1="-9.983" y2="-1.956"/><line x1="-3.889" x2="-4.101" y1="-2.019" y2="-1.956"/><line x1="-3.677" x2="-3.677" y1="-9.857" y2="-1.831"/><line x1="-4.101" x2="-3.677" y1="-1.956" y2="-1.831"/><line x1="-3.465" x2="-3.465" y1="-9.92" y2="-1.894"/><line x1="-3.465" x2="-3.677" y1="-1.894" y2="-1.831"/><line x1="1.768" x2="1.768" y1="-8.377" y2="-.35"/><line x1="-3.465" x2="1.768" y1="-1.894" y2="-.35"/><line x1="1.556" x2="1.556" y1="-8.314" y2="-.288"/><line x1="1.768" x2="1.556" y1="-.35" y2="-.288"/><line x1="1.98" x2="1.98" y1="-8.189" y2="-.163"/><line x1="1.556" x2="1.98" y1="-.288" y2="-.163"/><line x1="2.192" x2="2.192" y1="-8.251" y2="-.225"/><line x1="2.192" x2="1.98" y1="-.225" y2="-.163"/><line x1="7.425" x2="7.425" y1="-6.708" y2="1.318"/><line x1="2.192" x2="7.425" y1="-.225" y2="1.318"/><line x1="7.212" x2="7.212" y1="-6.646" y2="1.381"/><line x1="7.425" x2="7.212" y1="1.318" y2="1.381"/><line x1="7.637" x2="7.637" y1="-6.52" y2="1.506"/><line x1="7.212" x2="7.637" y1="1.381" y2="1.506"/><line x1="7.849" x2="7.849" y1="-6.583" y2="1.443"/><line x1="7.849" x2="7.637" y1="1.443" y2="1.506"/><line x1="13.081" x2="13.081" y1="-5.04" y2="2.987"/><line x1="7.849" x2="13.081" y1="1.443" y2="2.987"/><line x1="12.869" x2="12.869" y1="-4.977" y2="3.049"/><line x1="13.081" x2="12.869" y1="2.987" y2="3.049"/><line x1="13.294" x2="13.294" y1="-4.852" y2="3.174"/><line x1="12.869" x2="13.294" y1="3.049" y2="3.174"/><line x1="13.506" x2="13.506" y1="-4.914" y2="3.112"/><line x1="13.506" x2="13.294" y1="3.112" y2="3.174"/><line x1="18.738" x2="18.738" y1="-3.371" y2="4.655"/><line x1="13.506" x2="18.738" y1="3.112" y2="4.655"/><line x1="18.526" x2="18.526" y1="-3.308" y2="4.718"/><line x1="18.738" x2="18.526" y1="4.655" y2="4.718"/><line x1="18.95" x2="18.95" y1="-3.183" y2="4.843"/><line x1="18.526" x2="18.95" y1="4.718" y2="4.843"/><line x1="19.163" x2="19.163" y1="-3.246" y2="4.78"/><line x1="19.163" x2="18.95" y1="4.78" y2="4.843"/><line x1="20.93" x2="20.93" y1="-2.724" y2="5.302"/><line x1="19.163" x2="20.93" y1="4.78" y2="5.302"/><line x1="19.163" x2="19.163" y1="-2.203" y2="5.823"/><line x1="20.93" x2="19.163" y1="5.302" y2="5.823"/><line x1="18.95" x2="18.95" y1="-2.266" y2="5.761"/><line x1="18.95" x2="19.163" y1="5.761" y2="5.823"/><line x1="18.526" x2="18.526" y1="-2.14" y2="5.886"/><line x1="18.95" x2="18.526" y1="5.761" y2="5.886"/><line x1="18.738" x2="18.738" y1="-2.078" y2="5.948"/><line x1="18.526" x2="18.738" y1="5.886" y2="5.948"/><line x1="13.506" x2="13.506" y1="-.534" y2="7.492"/><line x1="18.738" x2="13.506" y1="5.948" y2="7.492"/><line x1="13.294" x2="13.294" y1="-.597" y2="7.429"/><line x1="13.294" x2="13.506" y1="7.429" y2="7.492"/><line x1="12.869" x2="12.869" y1="-.472" y2="7.554"/><line x1="13.294" x2="12.869" y1="7.429" y2="7.554"/><line x1="13.081" x2="13.081" y1="-.409" y2="7.617"/><line x1="12.869" x2="13.081" y1="7.554" y2="7.617"/><line x1="11.314" x2="11.314" y1=".112" y2="8.138"/><line x1="13.081" x2="11.314" y1="7.617" y2="8.138"/><line x1="9.546" x2="9.546" y1="-.409" y2="7.617"/><line x1="9.546" x2="11.314" y1="7.617" y2="8.138"/><line x1="9.758" x2="9.758" y1="-.472" y2="7.554"/><line x1="9.758" x2="9.546" y1="7.554" y2="7.617"/><line x1="9.334" x2="9.334" y1="-.597" y2="7.429"/><line x1="9.334" x2="9.758" y1="7.429" y2="7.554"/><line x1="9.122" x2="9.122" y1="-.534" y2="7.492"/><line x1="9.334" x2="9.122" y1="7.429" y2="7.492"/><line x1="3.889" x2="3.889" y1="-2.078" y2="5.948"/><line x1="3.889" x2="9.122" y1="5.948" y2="7.492"/><line x1="4.101" x2="4.101" y1="-2.14" y2="5.886"/><line x1="4.101" x2="3.889" y1="5.886" y2="5.948"/><line x1="3.677" x2="3.677" y1="-2.266" y2="5.761"/><line x1="3.677" x2="4.101" y1="5.761" y2="5.886"/><line x1="3.465" x2="3.465" y1="-2.203" y2="5.823"/><line x1="3.677" x2="3.465" y1="5.761" y2="5.823"/><line x1="-1.768" x2="-1.768" y1="-3.746" y2="4.28"/><line x1="-1.768" x2="3.465" y1="4.28" y2="5.823"/><line x1="-1.556" x2="-1.556" y1="-3.809" y2="4.217"/><line x1="-1.556" x2="-1.768" y1="4.217" y2="4.28"/><line x1="-1.98" x2="-1.98" y1="-3.934" y2="4.092"/><line x1="-1.98" x2="-1.556" y1="4.092" y2="4.217"/><line x1="-2.192" x2="-2.192" y1="-3.872" y2="4.155"/><line x1="-1.98" x2="-2.192" y1="4.092" y2="4.155"/><line x1="-7.425" x2="-7.425" y1="-5.415" y2="2.611"/><line x1="-7.425" x2="-2.192" y1="2.611" y2="4.155"/><line x1="-7.212" x2="-7.212" y1="-5.478" y2="2.549"/><line x1="-7.212" x2="-7.425" y1="2.549" y2="2.611"/><line x1="-7.637" x2="-7.637" y1="-5.603" y2="2.424"/><line x1="-7.637" x2="-7.212" y1="2.424" y2="2.549"/><line x1="-7.849" x2="-7.849" y1="-5.54" y2="2.486"/><line x1="-7.637" x2="-7.849" y1="2.424" y2="2.486"/><line x1="-13.081" x2="-13.081" y1="-7.084" y2=".943"/><line x1="-13.081" x2="-7.849" y1=".943" y2="2.486"/><line x1="-12.869" x2="-12.869" y1="-7.146" y2=".88"/><line x1="-12.869" x2="-13.081" y1=".88" y2=".943"/><line x1="-13.294" x2="-13.294" y1="-7.271" y2=".755"/><line x1="-13.294" x2="-12.869" y1=".755" y2=".88"/><line x1="-13.506" x2="-13.506" y1="-7.209" y2=".818"/><line x1="-13.294" x2="-13.506" y1=".755" y2=".818"/><line x1="-18.738" x2="-18.738" y1="-8.752" y2="-.726"/><line x1="-18.738" x2="-13.506" y1="-.726" y2=".818"/><line x1="-18.526" x2="-18.526" y1="-8.815" y2="-.788"/><line x1="-18.526" x2="-18.738" y1="-.788" y2="-.726"/><line x1="-18.95" x2="-18.95" y1="-8.94" y2="-.913"/><line x1="-18.95" x2="-18.526" y1="-.913" y2="-.788"/><line x1="-19.163" x2="-19.163" y1="-8.877" y2="-.851"/><line x1="-18.95" x2="-19.163" y1="-.913" y2="-.851"/><line x1="-20.93" x2="-19.163" y1="-1.372" y2="-.851"/><path d="M -9.015611,-0.694498 A 3.25,0.9586267787312834 0.0 0,1 -14.563708,-1.372349"/><path d="M -14.563708,-1.372349 A 3.25,0.9586267787312834 0.0 0,1 -8.063708,-1.372349"/><path d="M -8.063708,-1.372349 A 3.25,0.9586267787312834 0.0 0,1 -9.015611,-0.694498"/><path d="M -3.358757,0.97406 A 3.25,0.9586267787312834 0.0 0,1 -8.906854,0.296208"/><path d="M -8.906854,0.296208 A 3.25,0.9586267787312834 0.0 0,1 -2.406854,0.296208"/><path d="M -2.406854,0.296208 A 3.25,0.9586267787312834 0.0 0,1 -3.358757,0.97406"/><path d="M 2.298097,2.642617 A 3.25,0.9586267787312834 0.0 0,1 -3.25,1.964766"/><path d="M -3.25,1.964766 A 3.25,0.9586267787312834 0.0 0,1 3.25,1.964766"/><path d="M 3.25,1.964766 A 3.25,0.9586267787312834 0.0 0,1 2.298097,2.642617"/><path d="M 7.954951,4.311175 A 3.25,0.9586267787312834 0.0 0,1 2.406854,3.633323"/><path d="M 2.406854,3.633323 A 3.25,0.9586267787312834 0.0 0,1 8.906854,3.633323"/><path d="M 8.906854,3.633323 A 3.25,0.9586267787312834 0.0 0,1 7.954951,4.311175"/><path d="M 13.611806,5.979732 A 3.25,0.9586267787312834 0.0 0,1 8.063708,5.301881"/><path d="M 8.063708,5.301881 A 3.25,0.9586267787312834 0.0 0,1 14.563708,5.301881"/><path d="M 14.563708,5.301881 A 3.25,0.9586267787312834 0.0 0,1 13.611806,5.979732"/><path d="M -9.015611,-8.720773 A 3.25,0.9586267787312834 0.0 0,1 -14.563708,-9.398625"/><path d="M -14.563708,-9.398625 A 3.25,0.9586267787312834 0.0 0,1 -8.063708,-9.398625"/><path d="M -8.063708,-9.398625 A 3.25,0.9586267787312834 0.0 0,1 -9.015611,-8.720773"/><path d="M -3.358757,-7.052216 A 3.25,0.9586267787312834 0.0 0,1 -8.906854,-7.730067"/><path d="M -8.906854,-7.730067 A 3.25,0.9586267787312834 0.0 0,1 -2.406854,-7.730067"/><path d="M -2.406854,-7.730067 A 3.25,0.9586267787312834 0.0 0,1 -3.358757,-7.052216"/><path d="M 2.298097,-5.383658 A 3.25,0.9586267787312834 0.0 0,1 -3.25,-6.06151"/><path d="M -3.25,-6.06151 A 3.25,0.9586267787312834 0.0 0,1 3.25,-6.06151"/><path d="M 3.25,-6.06151 A 3.25,0.9586267787312834 0.0 0,1 2.298097,-5.383658"/><path d="M 7.954951,-3.715101 A 3.25,0.9586267787312834 0.0 0,1 2.406854,-4.392952"/><path d="M 2.406854,-4.392952 A 3.25,0.9586267787312834 0.0 0,1 8.906854,-4.392952"/><path d="M 8.906854,-4.392952 A 3.25,0.9586267787312834 0.0 0,1 7.954951,-3.715101"/><path d="M 13.611806,-2.046543 A 3.25,0.9586267787312834 0.0 0,1 8.063708,-2.724395"/><path d="M 8.063708,-2.724395 A 3.25,0.9586267787312834 0.0 0,1 14.563708,-2.724395"/><path d="M 14.563708,-2.724395 A 3.25,0.9586267787312834 0.0 0,1 13.611806,-2.046543"/><path d="M -9.616652,-8.898057 A 2.4,0.7079090058323324 0.0 0,1 -13.713708,-9.398625"/><path d="M -13.713708,-9.398625 A 2.4,0.7079090058323324 0.0 0,1 -8.913708,-9.398625"/><path d="M -8.913708,-9.398625 A 2.4,0.7079090058323324 0.0 0,1 -9.616652,-8.898057"/><path d="M -3.959798,-7.2295 A 2.4,0.7079090058323324 0.0 0,1 -8.056854,-7.730067"/><path d="M -8.056854,-7.730067 A 2.4,0.7079090058323324 0.0 0,1 -3.256854,-7.730067"/><path d="M -3.256854,-7.730067 A 2.4,0.7079090058323324 0.0 0,1 -3.959798,-7.2295"/><path d="M 1.697056,-5.560942 A 2.4,0.7079090058323324 0.0 0,1 -2.4,-6.06151"/><path d="M -2.4,-6.06151 A 2.4,0.7079090058323324 0.0 0,1 2.4,-6.06151"/><path d="M 2.4,-6.06151 A 2.4,0.7079090058323324 0.0 0,1 1.697056,-5.560942"/><path d="M 7.353911,-3.892385 A 2.4,0.7079090058323324 0.0 0,1 3.256854,-4.392952"/><path d="M 3.256854,-4.392952 A 2.4,0.7079090058323324 0.0 0,1 8.056854,-4.392952"/><path d="M 8.056854,-4.392952 A 2.4,0.7079090058323324 0.0 0,1 7.353911,-3.892385"/><path d="M 13.010765,-2.223827 A 2.4,0.7079090058323324 0.0 0,1 8.913708,-2.724395"/><path d="M 8.913708,-2.724395 A 2.4,0.7079090058323324 0.0 0,1 13.713708,-2.724395"/><path d="M 13.713708,-2.724395 A 2.4,0.7079090058323324 0.0 0,1 13.010765,-2.223827"/><path d="M -9.616652,-0.871782 A 2.4,0.7079090058323324 0.0 0,1 -13.713708,-1.372349"/><path d="M -13.713708,-1.372349 A 2.4,0.7079090058323324 0.0 0,1 -8.913708,-1.372349"/><path d="M -8.913708,-1.372349 A 2.4,0.7079090058323324 0.0 0,1 -9.616652,-0.871782"/><path d="M -3.959798,0.796775 A 2.4,0.7079090058323324 0.0 0,1 -8.056854,0.296208"/><path d="M -8.056854,0.296208 A 2.4,0.7079090058323324 0.0 0,1 -3.256854,0.296208"/><path d="M -3.256854,0.296208 A 2.4,0.7079090058323324 0.0 0,1 -3.959798,0.796775"/><path d="M 1.697056,2.465333 A 2.4,0.7079090058323324 0.0 0,1 -2.4,1.964766"/><path d="M -2.4,1.964766 A 2.4,0.7079090058323324 0.0 0,1 2.4,1.964766"/><path d="M 2.4,1.964766 A 2.4,0.7079090058323324 0.0 0,1 1.697056,2.465333"/><path d="M 7.353911,4.13389 A 2.4,0.7079090058323324 0.0 0,1 3.256854,3.633323"/><path d="M 3.256854,3.633323 A 2.4,0.7079090058323324 0.0 0,1 8.056854,3.633323"/><path d="M 8.056854,3.633323 A 2.4,0.7079090058323324 0.0 0,1 7.353911,4.13389"/><path d="M 13.010765,5.802448 A 2.4,0.7079090058323324 0.0 0,1 8.913708,5.301881"/><path d="M 8.913708,5.301881 A 2.4,0.7079090058323324 0.0 0,1 13.713708,5.301881"/><path d="M 13.713708,5.301881 A 2.4,0.7079090058323324 0.0 0,1 13.010765,5.802448"/><line x1="-14.564" x2="-14.564" y1="-1.372" y2="-9.399"/><line x1="-8.064" x2="-8.064" y1="-1.372" y2="-9.399"/><line x1="-8.907" x2="-8.907" y1=".296" y2="-7.73"/><line x1="-2.407" x2="-2.407" y1=".296" y2="-7.73"/><line x1="-3.25" x2="-3.25" y1="1.965" y2="-6.062"/><line x1="3.25" x2="3.25" y1="1.965" y2="-6.062"/><line x1="2.407" x2="2.407" y1="3.633" y2="-4.393"/><line x1="8.907" x2="8.907" y1="3.633" y2="-4.393"/><line x1="8.064" x2="8.064" y1="5.302" y2="-2.724"/><line x1="14.564" x2="14.564" y1="5.302" y2="-2.724"/><line x1="-13.714" x2="-13.714" y1="-1.372" y2="-9.399"/><line x1="-8.914" x2="-8.914" y1="-1.372" y2="-9.399"/><line x1="-8.057" x2="-8.057" y1=".296" y2="-7.73"/><line x1="-3.257" x2="-3.257" y1=".296" y2="-7.73"/><line x1="-2.4" x2="-2.4" y1="1.965" y2="-6.062"/><line x1="2.4" x2="2.4" y1="1.965" y2="-6.062"/><line x1="3.257" x2="3.257" y1="3.633" y2="-4.393"/><line x1="8.057" x2="8.057" y1="3.633" y2="-4.393"/><line x1="8.914" x2="8.914" y1="5.302" y2="-2.724"/><line x1="13.714" x2="13.714" y1="5.302" y2="-2.724"/></g></g></svg>