<svg xmlns="http://www.w3.org/2000/svg" width="378.293" height="231.666" version="1.1" viewBox="-1.702 -2.239 3.937 2.411"><g stroke-linecap="round" transform="scale(1,-1)"><g fill="none" stroke="#000" stroke-width=".004"><line x1="0" x2="2" y1="0" y2="0"/><line x1="0" x2="0" y1="0" y2="2"/><path d="M 2.0,0.0 C 1.944444,0.0 1.922222,0.033333 1.9,0.066667"/><path d="M 2.0,0.0 C 1.944444,0.0 1.922222,-0.033333 1.9,-0.066667"/><path d="M 0.0,2.0 C -0.0,1.944444 -0.033333,1.922222 -0.066667,1.9"/><path d="M 0.0,2.0 C -0.0,1.944444 0.033333,1.922222 0.066667,1.9"/><line x1="2" x2="2.223" y1="-.17" y2=".17"/><line x1="2.233" x2="2.012" y1="-.17" y2=".17"/><line x1=".17" x2=".022" y1="2.118" y2="2.118"/><line x1="-.17" x2=".022" y1="2" y2="2.118"/><line x1=".022" x2="-.17" y1="2.118" y2="2.237"/><path d="M 1.5,0.0 L 1.5,0.8 A 0.2,0.2 0.0 0,1 1.3,1.0 L -1.3,1.0 A 0.2,0.2 0.0 0,1 -1.5,0.8 L -1.5,0.0 L -1.7,0.0 L -1.7,0.8 A 0.39999999999999997,0.39999999999999997 0.0 0,0 -1.3,1.2 L 1.3,1.2 A 0.39999999999999997,0.39999999999999997 0.0 0,0 1.7,0.8 L 1.7,0.0 L 1.5,0.0"/></g><g id="dashed" fill="none" stroke="#000" stroke-dasharray=".042 .064" stroke-width=".004"><path d="M 1.5,0.0 L 1.5,0.8 A 0.2,0.2 0.0 0,1 1.3,1.0 L -1.3,1.0 A 0.2,0.2 0.0 0,1 -1.5,0.8 L -1.5,0.0"/></g></g></svg>